# xmcd
#
# Track frame offsets:
#	150
#	17445
#	35080
#	58385
#	81455
#	103040
#	118802
#	138382
#	163570
#	178665
#
# Disc length: 2659 seconds
#
# Revision: 1
# Processed by: cddbd v1.4PL0 Copyright (c) Steve Scherf et al.
# Submitted via: audiograbber 1.81.02
#
DISCID=8b0a610a
DTITLE=U. P. Wilson - This is U. P. Wilson
DYEAR=1900
DGENRE=blues
TTITLE0=Hold On Baby
TTITLE1=Boots and Shoes
TTITLE2=Bad Luck and Trouble
TTITLE3=You're One Woman
TTITLE4=Changes
TTITLE5=Go Home With Me
TTITLE6=Hold Me
TTITLE7=Peaches
TTITLE8=Used to be Mine
TTITLE9=Fool for you
EXTD=
EXTT0=
EXTT1=
EXTT2=
EXTT3=
EXTT4=
EXTT5=
EXTT6=
EXTT7=
EXTT8=
EXTT9=
PLAYORDER=
